<svg xmlns="http://www.w3.org/2000/svg" xmlns:xlink="http://www.w3.org/1999/xlink" width="1500" zoomAndPan="magnify" viewBox="0 0 1125 225" height="300" preserveAspectRatio="xMidYMid meet" version="1.2"><defs><clipPath id="388d2493f8"><path d="M 20.214844 60 L 245 60 L 245 165 L 20.214844 165 Z M 20.214844 60 "/></clipPath></defs><g id="ffc3511adb"><path style=" stroke:none;fill-rule:nonzero;fill:#ffffff;fill-opacity:1;" d="M 23.945312 160.074219 L 240.453125 160.074219 L 239.6875 121.511719 C 239.6875 121.511719 220.585938 89.691406 191.011719 84.070312 C 161.4375 78.453125 98.871094 64.207031 98.871094 64.207031 C 98.871094 64.207031 80.894531 110.816406 27.675781 95.398438 L 23.945312 97.285156 L 23.945312 160.210938 Z M 23.945312 160.074219 "/><path style=" stroke:none;fill-rule:nonzero;fill:#ea5d5c;fill-opacity:1;" d="M 25.429688 122.367188 C 31.875 119.539062 38.617188 118.160156 45.65625 118.230469 C 55.183594 118.949219 63.632812 106.632812 65.117188 98.769531 C 65.117188 98.769531 28.800781 97.644531 27.675781 95.398438 C 26.554688 93.152344 23.945312 97.285156 23.945312 97.285156 Z M 25.429688 122.367188 "/><path style=" stroke:none;fill-rule:nonzero;fill:#4c66af;fill-opacity:1;" d="M 125.03125 93.015625 L 171.371094 104.835938 L 144.984375 144.703125 L 94.960938 142.726562 Z M 125.03125 93.015625 "/><g clip-rule="nonzero" clip-path="url(#388d2493f8)"><path style=" stroke:none;fill-rule:nonzero;fill:#3f4651;fill-opacity:1;" d="M 199.640625 83.351562 L 100.355469 60.296875 L 99.320312 60.296875 C 98.488281 60.300781 97.714844 60.523438 97.007812 60.957031 C 96.296875 61.394531 95.75 61.980469 95.367188 62.722656 C 89.476562 74.632812 77.386719 88.746094 63.09375 92.160156 C 58.273438 93.285156 53.390625 93.839844 48.441406 93.824219 C 40.863281 93.914062 33.535156 92.59375 26.464844 89.871094 C 25.902344 89.632812 25.320312 89.511719 24.710938 89.511719 C 24.414062 89.511719 24.121094 89.539062 23.832031 89.597656 C 23.542969 89.652344 23.261719 89.738281 22.992188 89.851562 C 22.71875 89.964844 22.457031 90.105469 22.214844 90.265625 C 21.96875 90.429688 21.742188 90.617188 21.53125 90.828125 C 21.324219 91.035156 21.136719 91.261719 20.972656 91.507812 C 20.808594 91.753906 20.671875 92.011719 20.558594 92.285156 C 20.445312 92.558594 20.359375 92.839844 20.300781 93.128906 C 20.246094 93.417969 20.214844 93.710938 20.214844 94.003906 L 20.214844 164.839844 L 244.945312 164.839844 L 244.945312 134.859375 C 244.992188 110.140625 223.550781 88.835938 199.640625 83.351562 Z M 236.003906 134.726562 L 236.003906 137.917969 L 211.777344 137.917969 C 211.464844 133.695312 210.847656 129.515625 209.921875 125.382812 C 208.992188 121.25 207.769531 117.207031 206.246094 113.257812 C 204.722656 109.304688 202.917969 105.488281 200.832031 101.800781 C 198.746094 98.117188 196.402344 94.601562 193.796875 91.261719 L 197.753906 92.070312 C 216.449219 96.433594 236.003906 113.644531 236.003906 134.726562 Z M 143.816406 101.644531 L 119.90625 137.917969 L 101.929688 137.917969 L 128.222656 98.09375 Z M 153.167969 103.804688 L 164.761719 106.453125 L 143.996094 137.917969 L 130.511719 137.917969 Z M 174.113281 108.613281 L 196.585938 113.78125 C 199.859375 121.507812 201.820312 129.550781 202.472656 137.917969 L 154.964844 137.917969 Z M 101.476562 69.824219 L 107.769531 71.308594 L 107.050781 74.496094 C 106.984375 74.785156 106.945312 75.078125 106.9375 75.371094 C 106.929688 75.667969 106.949219 75.960938 106.996094 76.253906 C 107.046875 76.542969 107.121094 76.828125 107.226562 77.105469 C 107.332031 77.378906 107.460938 77.644531 107.617188 77.894531 C 107.773438 78.144531 107.953125 78.378906 108.15625 78.59375 C 108.359375 78.808594 108.582031 79.003906 108.820312 79.171875 C 109.0625 79.34375 109.316406 79.492188 109.585938 79.613281 C 109.855469 79.734375 110.132812 79.828125 110.421875 79.894531 C 110.710938 79.960938 111 80 111.296875 80.007812 C 111.59375 80.015625 111.886719 79.996094 112.175781 79.949219 C 112.46875 79.898438 112.75 79.820312 113.027344 79.71875 C 113.304688 79.613281 113.566406 79.480469 113.816406 79.324219 C 114.070312 79.167969 114.300781 78.988281 114.515625 78.785156 C 114.730469 78.582031 114.925781 78.363281 115.097656 78.121094 C 115.269531 77.882812 115.414062 77.625 115.535156 77.355469 C 115.65625 77.085938 115.75 76.808594 115.816406 76.519531 L 116.851562 73.195312 L 125.613281 75.21875 L 124.894531 78.320312 C 124.828125 78.605469 124.792969 78.898438 124.78125 79.191406 C 124.773438 79.488281 124.792969 79.78125 124.84375 80.070312 C 124.890625 80.363281 124.96875 80.644531 125.074219 80.921875 C 125.179688 81.199219 125.308594 81.460938 125.464844 81.710938 C 125.621094 81.960938 125.800781 82.195312 126.003906 82.410156 C 126.207031 82.625 126.425781 82.816406 126.667969 82.988281 C 126.90625 83.160156 127.164062 83.304688 127.433594 83.425781 C 127.699219 83.546875 127.980469 83.640625 128.265625 83.707031 C 128.554688 83.773438 128.847656 83.8125 129.140625 83.820312 C 129.4375 83.832031 129.730469 83.8125 130.019531 83.761719 C 130.3125 83.714844 130.59375 83.636719 130.871094 83.53125 C 131.148438 83.429688 131.410156 83.296875 131.660156 83.140625 C 131.910156 82.984375 132.144531 82.804688 132.359375 82.605469 C 132.574219 82.402344 132.765625 82.179688 132.9375 81.941406 C 133.109375 81.699219 133.257812 81.445312 133.378906 81.175781 C 133.5 80.90625 133.59375 80.628906 133.660156 80.339844 L 134.378906 77.238281 L 143.144531 79.261719 L 142.425781 82.320312 C 142.359375 82.605469 142.320312 82.898438 142.3125 83.191406 C 142.304688 83.488281 142.324219 83.78125 142.371094 84.070312 C 142.421875 84.363281 142.496094 84.648438 142.601562 84.921875 C 142.707031 85.199219 142.835938 85.460938 142.992188 85.710938 C 143.152344 85.960938 143.328125 86.195312 143.53125 86.410156 C 143.734375 86.625 143.957031 86.816406 144.195312 86.988281 C 144.4375 87.160156 144.691406 87.308594 144.960938 87.429688 C 145.230469 87.550781 145.507812 87.644531 145.796875 87.710938 C 146.082031 87.777344 146.375 87.8125 146.671875 87.824219 C 146.964844 87.832031 147.257812 87.8125 147.550781 87.761719 C 147.839844 87.714844 148.125 87.636719 148.398438 87.535156 C 148.675781 87.429688 148.9375 87.296875 149.191406 87.140625 C 149.441406 86.984375 149.671875 86.804688 149.886719 86.605469 C 150.101562 86.402344 150.296875 86.179688 150.46875 85.941406 C 150.640625 85.699219 150.785156 85.445312 150.90625 85.175781 C 151.027344 84.90625 151.121094 84.628906 151.1875 84.339844 L 151.90625 81.285156 L 160.671875 83.308594 L 160 86.320312 C 159.933594 86.605469 159.894531 86.898438 159.886719 87.191406 C 159.875 87.488281 159.894531 87.78125 159.945312 88.074219 C 159.992188 88.363281 160.070312 88.648438 160.175781 88.925781 C 160.28125 89.199219 160.410156 89.464844 160.566406 89.714844 C 160.722656 89.964844 160.902344 90.195312 161.105469 90.410156 C 161.308594 90.628906 161.527344 90.820312 161.769531 90.992188 C 162.007812 91.164062 162.265625 91.308594 162.535156 91.429688 C 162.804688 91.550781 163.082031 91.644531 163.371094 91.710938 C 163.65625 91.777344 163.949219 91.816406 164.242188 91.824219 C 164.539062 91.835938 164.832031 91.816406 165.125 91.765625 C 165.414062 91.71875 165.699219 91.640625 165.972656 91.535156 C 166.25 91.429688 166.515625 91.300781 166.765625 91.144531 C 167.015625 90.988281 167.246094 90.808594 167.460938 90.605469 C 167.675781 90.402344 167.871094 90.183594 168.042969 89.941406 C 168.214844 89.699219 168.359375 89.445312 168.480469 89.175781 C 168.601562 88.90625 168.695312 88.628906 168.761719 88.339844 L 169.4375 85.328125 L 178.921875 87.53125 C 183.816406 92.183594 188.042969 97.382812 191.59375 103.128906 L 94.195312 80.65625 C 97.003906 77.238281 99.503906 73.613281 101.703125 69.777344 Z M 86.78125 88.566406 L 118.917969 95.9375 L 91.230469 137.917969 L 29.25 137.917969 L 29.25 129.378906 C 32.484375 124.027344 35.765625 123.308594 43.945312 121.601562 C 47.136719 120.925781 50.777344 120.164062 55.183594 118.949219 C 56.628906 118.664062 58.023438 118.226562 59.375 117.636719 C 60.722656 117.046875 61.992188 116.316406 63.183594 115.453125 C 64.375 114.585938 65.457031 113.605469 66.4375 112.503906 C 67.414062 111.402344 68.261719 110.210938 68.980469 108.925781 C 69.710938 107.402344 70.1875 105.804688 70.410156 104.128906 C 70.632812 102.457031 70.589844 100.789062 70.285156 99.128906 C 76.515625 96.667969 82.074219 93.144531 86.960938 88.566406 Z M 48.21875 102.679688 C 52.613281 102.652344 56.972656 102.234375 61.296875 101.421875 C 61.410156 102.695312 61.1875 103.910156 60.621094 105.0625 C 59.691406 106.449219 58.523438 107.597656 57.117188 108.503906 C 55.710938 109.410156 54.183594 110 52.53125 110.273438 C 48.441406 111.398438 44.9375 112.164062 41.878906 112.792969 C 37.375 113.46875 33.089844 114.832031 29.023438 116.882812 L 29.023438 100.164062 C 35.382812 101.882812 41.855469 102.722656 48.441406 102.679688 Z M 29.023438 155.671875 L 29.023438 146.679688 L 235.777344 146.679688 L 235.777344 155.671875 Z M 29.023438 155.671875 "/></g><g style="fill:#111827;fill-opacity:1;"><g transform="translate(254.474613, 165.010322)"><path style="stroke:none" d="M 83.515625 -58.40625 C 89.359375 -51.46875 92.28125 -43.691406 92.28125 -35.078125 C 92.082031 -25.160156 88.6875 -16.859375 82.09375 -10.171875 C 75.507812 -3.492188 67.515625 -0.15625 58.109375 -0.15625 L 19.015625 -0.15625 C 12.085938 -0.15625 8.03125 -2.035156 6.84375 -5.796875 C 6.238281 -7.484375 5.9375 -10.0625 5.9375 -13.53125 L 5.9375 -96 C 5.9375 -98.375 6.007812 -100.109375 6.15625 -101.203125 C 6.3125 -102.296875 6.785156 -103.582031 7.578125 -105.0625 C 8.960938 -107.738281 12.828125 -109.078125 19.171875 -109.078125 L 56.625 -109.078125 C 65.738281 -109.078125 73.363281 -105.90625 79.5 -99.5625 C 85.945312 -93.125 89.171875 -85.398438 89.171875 -76.390625 C 89.171875 -69.847656 87.285156 -63.851562 83.515625 -58.40625 Z M 65.984375 -36.5625 C 65.984375 -38.9375 65.707031 -40.816406 65.15625 -42.203125 C 64.613281 -43.585938 63.703125 -44.578125 62.421875 -45.171875 C 60.429688 -45.960938 57.65625 -46.359375 54.09375 -46.359375 C 50.53125 -46.359375 47.851562 -47.050781 46.0625 -48.4375 C 44.28125 -49.832031 43.390625 -52.679688 43.390625 -56.984375 C 43.390625 -61.296875 44.304688 -64.144531 46.140625 -65.53125 C 47.972656 -66.925781 51.019531 -67.625 55.28125 -67.625 C 59.25 -67.625 61.628906 -68.660156 62.421875 -70.734375 C 62.710938 -71.828125 62.859375 -73.609375 62.859375 -76.078125 C 62.859375 -78.554688 62.039062 -80.289062 60.40625 -81.28125 C 58.769531 -82.28125 56.316406 -82.78125 53.046875 -82.78125 L 32.25 -82.78125 L 32.25 -26.453125 L 56.625 -26.453125 C 62.863281 -26.453125 65.984375 -29.820312 65.984375 -36.5625 Z M 65.984375 -36.5625 "/></g></g><g style="fill:#111827;fill-opacity:1;"><g transform="translate(350.458958, 165.010322)"><path style="stroke:none" d="M 32.25 -26.296875 L 78.015625 -26.296875 C 80.296875 -26.296875 82.003906 -26.222656 83.140625 -26.078125 C 84.285156 -25.929688 85.597656 -25.460938 87.078125 -24.671875 C 89.753906 -23.285156 91.09375 -19.421875 91.09375 -13.078125 C 91.09375 -6.140625 89.257812 -2.078125 85.59375 -0.890625 C 83.914062 -0.296875 81.34375 0 77.875 0 L 19.015625 0 C 12.085938 0 8.03125 -1.878906 6.84375 -5.640625 C 6.238281 -7.234375 5.9375 -9.757812 5.9375 -13.21875 L 5.9375 -95.859375 C 5.9375 -100.910156 6.878906 -104.351562 8.765625 -106.1875 C 10.648438 -108.019531 14.21875 -108.9375 19.46875 -108.9375 L 78.015625 -108.9375 C 80.296875 -108.9375 82.003906 -108.859375 83.140625 -108.703125 C 84.285156 -108.554688 85.597656 -108.085938 87.078125 -107.296875 C 89.753906 -105.910156 91.09375 -102.046875 91.09375 -95.703125 C 91.09375 -88.765625 89.257812 -84.703125 85.59375 -83.515625 C 83.914062 -82.921875 81.34375 -82.625 77.875 -82.625 L 32.25 -82.625 L 32.25 -67.625 L 61.671875 -67.625 C 63.953125 -67.625 65.660156 -67.546875 66.796875 -67.390625 C 67.941406 -67.242188 69.253906 -66.773438 70.734375 -65.984375 C 73.410156 -64.597656 74.75 -60.734375 74.75 -54.390625 C 74.75 -47.453125 72.867188 -43.390625 69.109375 -42.203125 C 67.421875 -41.609375 64.84375 -41.3125 61.375 -41.3125 L 32.25 -41.3125 Z M 32.25 -26.296875 "/></g></g><g style="fill:#111827;fill-opacity:1;"><g transform="translate(445.254657, 165.010322)"><path style="stroke:none" d="M 32.25 -22 L 72.671875 -22 C 75.941406 -22 78.316406 -21.625 79.796875 -20.875 C 81.285156 -20.132812 82.273438 -18.972656 82.765625 -17.390625 C 83.265625 -15.804688 83.515625 -13.703125 83.515625 -11.078125 C 83.515625 -8.453125 83.265625 -6.34375 82.765625 -4.75 C 82.273438 -3.164062 81.4375 -2.078125 80.25 -1.484375 C 78.363281 -0.492188 75.785156 0 72.515625 0 L 19.015625 0 C 12.085938 0 8.03125 -1.878906 6.84375 -5.640625 C 6.238281 -7.234375 5.9375 -9.757812 5.9375 -13.21875 L 5.9375 -95.859375 C 5.9375 -98.128906 6.007812 -99.832031 6.15625 -100.96875 C 6.3125 -102.113281 6.785156 -103.429688 7.578125 -104.921875 C 8.960938 -107.597656 12.828125 -108.9375 19.171875 -108.9375 C 26.109375 -108.9375 30.21875 -107.101562 31.5 -103.4375 C 32 -101.75 32.25 -99.171875 32.25 -95.703125 Z M 32.25 -22 "/></g></g><g style="fill:#111827;fill-opacity:1;"><g transform="translate(509.658978, 165.010322)"><path style="stroke:none" d="M 13.078125 -109.078125 L 95.703125 -109.078125 C 98.867188 -109.078125 101.195312 -108.703125 102.6875 -107.953125 C 104.175781 -107.210938 105.164062 -106.050781 105.65625 -104.46875 C 106.15625 -102.882812 106.40625 -100.800781 106.40625 -98.21875 C 106.40625 -95.644531 106.15625 -93.59375 105.65625 -92.0625 C 105.164062 -90.53125 104.328125 -89.46875 103.140625 -88.875 C 101.347656 -87.976562 98.820312 -87.53125 95.5625 -87.53125 L 67.171875 -87.53125 L 67.171875 -12.78125 C 67.171875 -10.5 67.09375 -8.8125 66.9375 -7.71875 C 66.789062 -6.632812 66.347656 -5.375 65.609375 -3.9375 C 64.867188 -2.5 63.554688 -1.484375 61.671875 -0.890625 C 59.785156 -0.296875 57.304688 0 54.234375 0 C 51.171875 0 48.722656 -0.296875 46.890625 -0.890625 C 45.054688 -1.484375 43.765625 -2.5 43.015625 -3.9375 C 42.273438 -5.375 41.832031 -6.660156 41.6875 -7.796875 C 41.539062 -8.941406 41.46875 -10.648438 41.46875 -12.921875 L 41.46875 -87.53125 L 12.921875 -87.53125 C 9.753906 -87.53125 7.425781 -87.898438 5.9375 -88.640625 C 4.457031 -89.390625 3.46875 -90.554688 2.96875 -92.140625 C 2.476562 -93.722656 2.234375 -95.800781 2.234375 -98.375 C 2.234375 -100.957031 2.476562 -103.015625 2.96875 -104.546875 C 3.46875 -106.078125 4.3125 -107.140625 5.5 -107.734375 C 7.28125 -108.628906 9.804688 -109.078125 13.078125 -109.078125 Z M 13.078125 -109.078125 "/></g></g><g style="fill:#111827;fill-opacity:1;"><g transform="translate(595.982225, 165.010322)"><path style="stroke:none" d="M 68.8125 -101.203125 L 108.9375 -18.28125 C 110.613281 -14.90625 111.453125 -12.378906 111.453125 -10.703125 C 111.453125 -7.128906 108.582031 -3.910156 102.84375 -1.046875 C 99.46875 0.640625 96.8125 1.484375 94.875 1.484375 C 92.945312 1.484375 91.363281 1.035156 90.125 0.140625 C 88.894531 -0.742188 88.003906 -1.679688 87.453125 -2.671875 C 86.910156 -3.660156 86.144531 -5.148438 85.15625 -7.140625 L 77.421875 -23.1875 L 36.265625 -23.1875 L 28.53125 -7.140625 C 27.539062 -5.148438 26.769531 -3.707031 26.21875 -2.8125 C 25.675781 -1.925781 24.785156 -1.007812 23.546875 -0.0625 C 22.316406 0.875 20.734375 1.34375 18.796875 1.34375 C 16.867188 1.34375 14.21875 0.5 10.84375 -1.1875 C 5.101562 -3.957031 2.234375 -7.128906 2.234375 -10.703125 C 2.234375 -12.378906 3.070312 -14.90625 4.75 -18.28125 L 44.875 -101.359375 C 45.96875 -103.628906 47.628906 -105.457031 49.859375 -106.84375 C 52.085938 -108.238281 54.441406 -108.9375 56.921875 -108.9375 C 62.265625 -108.9375 66.226562 -106.359375 68.8125 -101.203125 Z M 56.765625 -65.53125 L 46.953125 -45.171875 L 66.71875 -45.171875 Z M 56.765625 -65.53125 "/></g></g><g style="fill:#111827;fill-opacity:1;"><g transform="translate(705.189795, 165.010322)"><path style="stroke:none" d="M 7.578125 -15.3125 C 5.003906 -18.476562 3.71875 -21.320312 3.71875 -23.84375 C 3.71875 -26.375 5.847656 -29.722656 10.109375 -33.890625 C 12.585938 -36.265625 15.210938 -37.453125 17.984375 -37.453125 C 20.753906 -37.453125 24.617188 -34.972656 29.578125 -30.015625 C 30.960938 -28.335938 32.941406 -26.726562 35.515625 -25.1875 C 38.085938 -23.65625 40.46875 -22.890625 42.65625 -22.890625 C 51.863281 -22.890625 56.46875 -26.65625 56.46875 -34.1875 C 56.46875 -36.457031 55.203125 -38.359375 52.671875 -39.890625 C 50.148438 -41.429688 47.003906 -42.546875 43.234375 -43.234375 C 39.472656 -43.929688 35.410156 -45.046875 31.046875 -46.578125 C 26.691406 -48.117188 22.628906 -49.929688 18.859375 -52.015625 C 15.097656 -54.097656 11.953125 -57.390625 9.421875 -61.890625 C 6.898438 -66.398438 5.640625 -71.828125 5.640625 -78.171875 C 5.640625 -86.890625 8.882812 -94.492188 15.375 -100.984375 C 21.863281 -107.472656 30.707031 -110.71875 41.90625 -110.71875 C 47.851562 -110.71875 53.273438 -109.945312 58.171875 -108.40625 C 63.078125 -106.875 66.472656 -105.316406 68.359375 -103.734375 L 72.078125 -100.90625 C 75.148438 -98.03125 76.6875 -95.601562 76.6875 -93.625 C 76.6875 -91.644531 75.492188 -88.921875 73.109375 -85.453125 C 69.742188 -80.492188 66.28125 -78.015625 62.71875 -78.015625 C 60.632812 -78.015625 58.054688 -79.003906 54.984375 -80.984375 C 54.691406 -81.191406 54.125 -81.691406 53.28125 -82.484375 C 52.4375 -83.273438 51.664062 -83.914062 50.96875 -84.40625 C 48.894531 -85.695312 46.242188 -86.34375 43.015625 -86.34375 C 39.796875 -86.34375 37.117188 -85.570312 34.984375 -84.03125 C 32.859375 -82.5 31.796875 -80.367188 31.796875 -77.640625 C 31.796875 -74.921875 33.054688 -72.71875 35.578125 -71.03125 C 38.109375 -69.351562 41.253906 -68.210938 45.015625 -67.609375 C 48.785156 -67.015625 52.898438 -66.097656 57.359375 -64.859375 C 61.816406 -63.628906 65.925781 -62.117188 69.6875 -60.328125 C 73.457031 -58.546875 76.601562 -55.453125 79.125 -51.046875 C 81.65625 -46.640625 82.921875 -41.210938 82.921875 -34.765625 C 82.921875 -28.328125 81.632812 -22.65625 79.0625 -17.75 C 76.488281 -12.851562 73.117188 -9.066406 68.953125 -6.390625 C 60.929688 -1.140625 52.363281 1.484375 43.25 1.484375 C 38.59375 1.484375 34.179688 0.914062 30.015625 -0.21875 C 25.859375 -1.363281 22.488281 -2.773438 19.90625 -4.453125 C 14.65625 -7.628906 10.992188 -10.703125 8.921875 -13.671875 Z M 7.578125 -15.3125 "/></g></g><g style="fill:#111827;fill-opacity:1;"><g transform="translate(791.813459, 165.010322)"><path style="stroke:none" d="M 73.265625 -104.90625 C 74.054688 -106.394531 75.390625 -107.4375 77.265625 -108.03125 C 79.148438 -108.632812 81.53125 -108.9375 84.40625 -108.9375 C 87.28125 -108.9375 89.554688 -108.6875 91.234375 -108.1875 C 92.921875 -107.6875 94.210938 -107.085938 95.109375 -106.390625 C 96.003906 -105.703125 96.695312 -104.71875 97.1875 -103.4375 C 97.6875 -101.75 97.9375 -99.171875 97.9375 -95.703125 L 97.9375 -13.21875 C 97.9375 -10.945312 97.859375 -9.238281 97.703125 -8.09375 C 97.554688 -6.957031 97.085938 -5.644531 96.296875 -4.15625 C 94.910156 -1.488281 91.046875 -0.15625 84.703125 -0.15625 C 77.773438 -0.15625 73.710938 -1.984375 72.515625 -5.640625 C 71.921875 -7.328125 71.625 -9.90625 71.625 -13.375 L 71.625 -43.546875 L 32.25 -43.546875 L 32.25 -13.21875 C 32.25 -10.945312 32.171875 -9.238281 32.015625 -8.09375 C 31.867188 -6.957031 31.398438 -5.644531 30.609375 -4.15625 C 29.222656 -1.488281 25.359375 -0.15625 19.015625 -0.15625 C 12.085938 -0.15625 8.03125 -1.984375 6.84375 -5.640625 C 6.238281 -7.328125 5.9375 -9.90625 5.9375 -13.375 L 5.9375 -95.859375 C 5.9375 -98.128906 6.007812 -99.832031 6.15625 -100.96875 C 6.3125 -102.113281 6.785156 -103.429688 7.578125 -104.921875 C 8.960938 -107.597656 12.828125 -108.9375 19.171875 -108.9375 C 26.109375 -108.9375 30.21875 -107.101562 31.5 -103.4375 C 32 -101.75 32.25 -99.171875 32.25 -95.703125 L 32.25 -65.390625 L 71.625 -65.390625 L 71.625 -95.859375 C 71.625 -98.128906 71.695312 -99.832031 71.84375 -100.96875 C 72 -102.113281 72.472656 -103.425781 73.265625 -104.90625 Z M 73.265625 -104.90625 "/></g></g><g style="fill:#111827;fill-opacity:1;"><g transform="translate(895.672702, 165.010322)"><path style="stroke:none" d="M 57.0625 -110.265625 C 71.726562 -110.265625 84.457031 -104.960938 95.25 -94.359375 C 106.050781 -83.765625 111.453125 -70.613281 111.453125 -54.90625 C 111.453125 -39.207031 106.300781 -25.832031 96 -14.78125 C 85.695312 -3.738281 73.015625 1.78125 57.953125 1.78125 C 42.898438 1.78125 30.097656 -3.664062 19.546875 -14.5625 C 8.992188 -25.457031 3.71875 -38.4375 3.71875 -53.5 C 3.71875 -61.71875 5.203125 -69.414062 8.171875 -76.59375 C 11.140625 -83.78125 15.101562 -89.800781 20.0625 -94.65625 C 25.019531 -99.519531 30.71875 -103.335938 37.15625 -106.109375 C 43.59375 -108.878906 50.226562 -110.265625 57.0625 -110.265625 Z M 30.015625 -54.234375 C 30.015625 -45.421875 32.863281 -38.265625 38.5625 -32.765625 C 44.257812 -27.265625 50.625 -24.515625 57.65625 -24.515625 C 64.695312 -24.515625 71.039062 -27.191406 76.6875 -32.546875 C 82.332031 -37.898438 85.15625 -45.082031 85.15625 -54.09375 C 85.15625 -63.113281 82.304688 -70.347656 76.609375 -75.796875 C 70.910156 -81.242188 64.539062 -83.96875 57.5 -83.96875 C 50.46875 -83.96875 44.128906 -81.21875 38.484375 -75.71875 C 32.835938 -70.21875 30.015625 -63.054688 30.015625 -54.234375 Z M 30.015625 -54.234375 "/></g></g><g style="fill:#111827;fill-opacity:1;"><g transform="translate(1010.824225, 165.010322)"><path style="stroke:none" d="M 86.34375 -86.9375 C 88.914062 -81.6875 90.203125 -75.835938 90.203125 -69.390625 C 90.203125 -62.953125 88.914062 -57.132812 86.34375 -51.9375 C 83.769531 -46.738281 80.453125 -42.601562 76.390625 -39.53125 C 68.160156 -33.1875 59.640625 -30.015625 50.828125 -30.015625 L 32.25 -30.015625 L 32.25 -13.21875 C 32.25 -10.945312 32.171875 -9.238281 32.015625 -8.09375 C 31.867188 -6.957031 31.398438 -5.644531 30.609375 -4.15625 C 29.222656 -1.488281 25.359375 -0.15625 19.015625 -0.15625 C 12.085938 -0.15625 8.03125 -1.984375 6.84375 -5.640625 C 6.238281 -7.328125 5.9375 -9.90625 5.9375 -13.375 L 5.9375 -95.859375 C 5.9375 -98.128906 6.007812 -99.832031 6.15625 -100.96875 C 6.3125 -102.113281 6.785156 -103.429688 7.578125 -104.921875 C 8.960938 -107.597656 12.828125 -108.9375 19.171875 -108.9375 L 50.96875 -108.9375 C 59.6875 -108.9375 68.160156 -105.765625 76.390625 -99.421875 C 80.453125 -96.347656 83.769531 -92.1875 86.34375 -86.9375 Z M 50.96875 -56.328125 C 53.945312 -56.328125 56.867188 -57.414062 59.734375 -59.59375 C 62.609375 -61.769531 64.046875 -65.035156 64.046875 -69.390625 C 64.046875 -73.753906 62.609375 -77.050781 59.734375 -79.28125 C 56.867188 -81.507812 53.898438 -82.625 50.828125 -82.625 L 32.25 -82.625 L 32.25 -56.328125 Z M 50.96875 -56.328125 "/></g></g></g></svg>